<?xml version="1.0" encoding="utf-8"?>
<!-- Generator: Adobe Illustrator 24.1.0, SVG Export Plug-In . SVG Version: 6.00 Build 0)  -->
<svg version="1.2" baseProfile="tiny" id="Camada_1"
	 xmlns="http://www.w3.org/2000/svg" xmlns:xlink="http://www.w3.org/1999/xlink" x="0px" y="0px" viewBox="555 15 690 477"
	 xml:space="preserve">
<g>
	<path fill="none" d="M848.02,85.33c-2.78-2.9-6.48-4.35-11.09-4.35c-2.96,0-5.62,0.65-7.99,1.95c-2.37,1.3-4.26,3.14-5.68,5.5
		c-1.42,2.37-2.31,5.15-2.66,8.34h31.77C852.26,92.05,850.8,88.23,848.02,85.33z"/>
	<path fill="none" d="M764.61,278.27c-5.09,0-8.99,0.83-11.71,2.49c-2.72,1.66-4.08,4.14-4.08,7.45c0,3.08,1.03,5.5,3.11,7.27
		c2.07,1.78,4.94,2.66,8.61,2.66c5.08,0,9.05-1.12,11.89-3.37c2.84-2.24,4.26-5.32,4.26-9.23v-6.03c-2.25-0.47-4.32-0.8-6.21-0.98
		C768.57,278.36,766.62,278.27,764.61,278.27z"/>
	<path fill="none" d="M923.63,408.83c-4.61,0-8.82,1.78-12.6,5.32c-3.79,3.55-5.68,9.17-5.68,16.86c0,7.45,1.89,13.02,5.68,16.68
		c3.79,3.67,7.99,5.5,12.6,5.5c3.2,0,6.18-0.83,8.96-2.48c2.78-1.66,5.03-4.14,6.74-7.45c1.71-3.31,2.57-7.45,2.57-12.42
		c0-7.69-1.89-13.28-5.68-16.77C932.44,410.58,928.24,408.83,923.63,408.83z"/>
	<path fill="none" d="M1032.6,403.86c-2.96,0-5.62,0.65-7.99,1.95c-2.37,1.3-4.26,3.14-5.68,5.5c-1.42,2.37-2.31,5.15-2.66,8.34
		h31.77c-0.12-4.73-1.57-8.55-4.35-11.45C1040.91,405.31,1037.22,403.86,1032.6,403.86z"/>
	<g>
		<path fill="#FFC107" d="M346.78,106.42l54.71,54.71L479,238.64c9.22,9.22,25,2.69,25-10.35V32.01c0-14.77-11.97-26.74-26.74-26.74
			H280.98c-13.05,0-19.58,15.77-10.35,25L346.78,106.42z"/>
		<path fill="#E77067" d="M365.68,234.75c-10.44-10.44-27.37-10.44-37.81,0L85.35,477.27c-9.23,9.23-2.69,25,10.35,25h381.56
			c14.77,0,26.74-11.97,26.74-26.74v-91.39c0-7.09-2.82-13.89-7.83-18.91L365.68,234.75z"/>
		<path fill="#825ABC" d="M32,421.2l241.16-241.16c10.44-10.44,10.44-27.37,0-37.81L144.04,13.1c-5.01-5.01-11.82-7.83-18.91-7.83
			H33.74C18.97,5.27,7,17.24,7,32.01v378.83C7,423.89,22.77,430.42,32,421.2z"/>
	</g>
	<path d="M768.51,67.76c-6.21-6.09-14.17-9.14-23.87-9.14c-5.44,0-10.36,0.86-14.73,2.57c-4.38,1.72-8.34,4.11-11.89,7.19V28.45
		h-3.2h-27.15H576.83V58.8h39.05v97.08h33.55V58.8h38.25v97.08h30.35v-52c0-4.26,0.65-7.72,1.95-10.38c1.3-2.66,3.08-4.59,5.32-5.77
		c2.25-1.18,4.73-1.78,7.45-1.78c5.08,0,8.81,1.63,11.18,4.88c2.36,3.26,3.55,7.66,3.55,13.22v51.83h30.35V94.47
		C777.83,82.76,774.73,73.86,768.51,67.76z"/>
	<path d="M812.17,151.27c7.39,4.14,15.94,6.21,25.65,6.21c11.95,0,21.95-2.95,29.99-8.87c8.05-5.92,13.55-14.32,16.51-25.2h-30.35
		c-1.3,3.43-3.37,6.03-6.21,7.81c-2.84,1.78-6.39,2.66-10.65,2.66c-3.31,0-6.21-0.74-8.7-2.22c-2.49-1.48-4.41-3.58-5.77-6.3
		c-1.36-2.72-2.1-5.92-2.22-9.59h64.43c1.42-7.81,1.24-15.17-0.53-22.09c-1.78-6.92-4.82-13.02-9.14-18.28
		c-4.32-5.27-9.67-9.38-16.06-12.34c-6.39-2.96-13.55-4.44-21.48-4.44c-9.47,0-17.9,2.13-25.29,6.39
		c-7.4,4.26-13.19,10.09-17.39,17.48c-4.2,7.4-6.3,15.89-6.3,25.47c0,9.94,2.07,18.61,6.21,26
		C799.01,141.36,804.78,147.13,812.17,151.27z M823.27,88.44c1.42-2.36,3.31-4.2,5.68-5.5c2.37-1.3,5.03-1.95,7.99-1.95
		c4.61,0,8.31,1.45,11.09,4.35c2.78,2.9,4.23,6.72,4.35,11.45H820.6C820.96,93.59,821.85,90.81,823.27,88.44z"/>
	<path d="M623.6,227.16c2.66-3.2,5.88-5.65,9.67-7.37c3.79-1.71,8.05-2.57,12.78-2.57c5.21,0,9.91,1.13,14.11,3.37
		c4.2,2.25,7.72,5.41,10.56,9.5c2.84,4.08,4.67,8.79,5.5,14.11h35.5c-1.3-11.24-4.97-21.15-11-29.73
		c-6.03-8.58-13.79-15.26-23.25-20.05c-9.47-4.79-20.06-7.19-31.77-7.19c-8.99,0-17.42,1.69-25.29,5.06
		c-7.87,3.37-14.76,8.08-20.68,14.11c-5.92,6.03-10.53,13.05-13.84,21.03c-3.31,7.99-4.97,16.66-4.97,26
		c0,9.35,1.66,18.05,4.97,26.09c3.31,8.05,7.93,15.12,13.84,21.21c5.92,6.1,12.81,10.83,20.68,14.2c7.87,3.37,16.3,5.06,25.29,5.06
		c11.71,0,22.27-2.4,31.68-7.19c9.41-4.79,17.13-11.47,23.16-20.06c6.03-8.58,9.76-18.55,11.18-29.9h-35.5
		c-0.95,5.32-2.81,10.03-5.59,14.11c-2.78,4.08-6.27,7.28-10.47,9.58c-4.2,2.31-8.91,3.46-14.11,3.46c-4.73,0-8.99-0.89-12.78-2.66
		c-3.79-1.78-7.01-4.26-9.67-7.45c-2.66-3.19-4.7-7.04-6.12-11.54c-1.42-4.5-2.13-9.46-2.13-14.91c0-5.44,0.71-10.38,2.13-14.82
		C618.89,234.17,620.94,230.35,623.6,227.16z"/>
	<path d="M770.11,260.62c-2.37-0.18-4.85-0.27-7.45-0.27c-13.61,0-24.08,2.46-31.41,7.36c-7.34,4.91-11.01,12.04-11.01,21.39
		c0,8.99,3.05,16.24,9.14,21.74c6.09,5.5,14.11,8.25,24.05,8.25c6.15,0,11.42-0.89,15.8-2.66c4.38-1.78,8.22-4.55,11.54-8.34v9.23
		h24.49V258.4c0-12.07-3.67-21.48-11-28.22c-7.34-6.74-17.57-10.12-30.71-10.12c-7.34,0-14.08,1.63-20.23,4.88
		c-6.16,3.26-11.16,7.63-15,13.13c-3.85,5.5-6.07,11.74-6.66,18.73h27.33c0-4.38,1.39-7.63,4.17-9.76
		c2.78-2.13,6.18-3.19,10.21-3.19c4.14,0,7.39,1.1,9.76,3.28c2.36,2.19,3.55,5.41,3.55,9.67v4.61
		C774.67,261.06,772.48,260.79,770.11,260.62z M776.68,285.55c0,3.9-1.42,6.98-4.26,9.23c-2.84,2.25-6.81,3.37-11.89,3.37
		c-3.67,0-6.54-0.89-8.61-2.66c-2.07-1.77-3.11-4.2-3.11-7.27c0-3.31,1.36-5.8,4.08-7.45c2.72-1.66,6.63-2.49,11.71-2.49
		c2.01,0,3.96,0.09,5.86,0.27c1.89,0.18,3.96,0.5,6.21,0.98V285.55z"/>
	<path d="M862.58,223.61c-4.73,2.37-8.93,5.68-12.6,9.94v-11.71h-27.86v95.49h30.35v-51.83c0-4.26,0.68-7.72,2.04-10.38
		c1.36-2.66,3.16-4.62,5.41-5.86c2.25-1.24,4.67-1.87,7.28-1.87c4.73,0,8.22,1.6,10.47,4.79c2.25,3.19,3.37,7.57,3.37,13.13v52
		h30.35v-51.83c0-4.26,0.71-7.72,2.13-10.38c1.42-2.66,3.25-4.62,5.5-5.86c2.25-1.24,4.62-1.87,7.1-1.87c4.73,0,8.22,1.6,10.47,4.79
		c2.24,3.19,3.37,7.57,3.37,13.13v52h30.35v-61.41c0-11.6-3.02-20.47-9.05-26.62c-6.03-6.15-13.79-9.23-23.25-9.23
		c-6.98,0-13.04,1.3-18.19,3.9c-5.15,2.6-9.79,6.21-13.93,10.83c-2.6-4.85-6.24-8.52-10.92-11c-4.68-2.48-10.03-3.73-16.06-3.73
		C872.75,220.06,867.31,221.24,862.58,223.61z"/>
	<path d="M988.86,211.98c3.61,3.26,8.31,4.88,14.11,4.88c5.8,0,10.5-1.62,14.11-4.88c3.61-3.25,5.41-7.37,5.41-12.34
		c0-5.08-1.81-9.26-5.41-12.51c-3.61-3.25-8.31-4.88-14.11-4.88c-5.8,0-10.5,1.63-14.11,4.88c-3.61,3.26-5.41,7.43-5.41,12.51
		C983.44,204.62,985.25,208.73,988.86,211.98z"/>
	<rect x="1037.04" y="317.29" width="1.78" height="0.03"/>
	<path d="M1150.63,304.63c4.5,4.56,9.76,8.11,15.8,10.65c6.03,2.54,12.6,3.81,19.7,3.81c7.1,0,13.67-1.27,19.7-3.81
		c6.03-2.55,11.3-6.09,15.8-10.65c4.5-4.55,8.02-9.82,10.56-15.8c2.54-5.97,3.82-12.39,3.82-19.26c0-6.86-1.27-13.28-3.82-19.26
		c-2.55-5.97-6.07-11.24-10.56-15.8c-4.5-4.55-9.76-8.1-15.8-10.65c-6.03-2.54-12.6-3.82-19.7-3.82c-7.1,0-13.66,1.27-19.7,3.82
		c-6.03,2.54-11.3,6.09-15.8,10.65c-4.5,4.56-8.02,9.82-10.56,15.8c-2.55,5.98-3.81,12.4-3.81,19.26c0,6.86,1.27,13.28,3.81,19.26
		C1142.61,294.81,1146.13,300.08,1150.63,304.63z M1170.42,257.15c1.71-3.31,3.99-5.77,6.83-7.37c2.84-1.6,5.8-2.4,8.87-2.4
		c3.2,0,6.18,0.8,8.96,2.4c2.78,1.6,5.03,4.06,6.74,7.37c1.71,3.31,2.57,7.45,2.57,12.42c0,4.97-0.86,9.11-2.57,12.42
		c-1.72,3.31-3.97,5.8-6.74,7.45c-2.78,1.66-5.77,2.49-8.96,2.49c-3.08,0-6.03-0.83-8.87-2.49c-2.84-1.65-5.12-4.14-6.83-7.45
		c-1.72-3.31-2.57-7.45-2.57-12.42C1167.85,264.61,1168.7,260.47,1170.42,257.15z"/>
	<path d="M585.97,441.58c3.37,8.22,8.08,15.29,14.11,21.21c6.03,5.92,13.07,10.5,21.12,13.75c8.05,3.25,16.69,4.88,25.91,4.88
		c10.53,0,20.06-1.81,28.57-5.41c8.52-3.61,15.68-8.7,21.48-15.27c5.8-6.56,10.03-14.34,12.69-23.34c2.66-8.99,3.4-18.87,2.22-29.64
		h-66.56v26.44h30.71c-1.18,3.55-3.02,6.74-5.5,9.59c-2.48,2.84-5.53,5.09-9.14,6.74c-3.61,1.66-7.84,2.48-12.69,2.48
		c-7.69,0-14.02-1.69-18.99-5.06c-4.97-3.37-8.64-7.9-11-13.58c-2.37-5.68-3.55-12.07-3.55-19.17c0-8.4,1.33-15.29,3.99-20.68
		c2.66-5.38,6.27-9.37,10.83-11.98c4.55-2.6,9.55-3.91,15-3.91c4.37,0,8.28,0.74,11.71,2.22c3.43,1.48,6.33,3.49,8.7,6.03
		c2.36,2.54,4.08,5.47,5.15,8.79h39.76c-2.96-9.59-7.45-17.9-13.49-24.94c-6.03-7.04-13.37-12.48-22.01-16.33
		c-8.64-3.84-18.28-5.77-28.93-5.77c-9.35,0-17.99,1.63-25.91,4.88c-7.93,3.26-14.82,7.87-20.68,13.84
		c-5.86,5.98-10.41,12.93-13.67,20.85c-3.26,7.93-4.88,16.62-4.88,26.09C580.91,424.27,582.6,433.35,585.97,441.58z"/>
	<path d="M942.26,392.15c-3.67-3.55-7.66-6.21-11.98-7.99c-4.32-1.77-8.96-2.66-13.93-2.66c-8.52,0-15.97,2.19-22.36,6.57
		c-6.39,4.38-11.36,10.32-14.91,17.84c-3.55,7.52-5.32,15.89-5.32,25.12c0,9.11,1.77,17.42,5.32,24.94
		c3.55,7.52,8.52,13.49,14.91,17.93c6.39,4.44,13.84,6.66,22.36,6.66c5.56,0,10.71-1.1,15.44-3.28c4.73-2.19,9.05-5.3,12.96-9.32
		v10.83h27.86V351.33h-30.35V392.15z M939.34,443.26c-1.72,3.31-3.97,5.8-6.74,7.45c-2.78,1.66-5.77,2.48-8.96,2.48
		c-4.61,0-8.82-1.83-12.6-5.5c-3.79-3.67-5.68-9.23-5.68-16.68c0-7.69,1.89-13.31,5.68-16.86c3.79-3.55,7.99-5.32,12.6-5.32
		c4.61,0,8.81,1.75,12.6,5.24c3.79,3.49,5.68,9.08,5.68,16.77C941.91,435.81,941.05,439.95,939.34,443.26z"/>
	<path d="M1079.99,416.55c-1.78-6.92-4.82-13.02-9.14-18.28c-4.32-5.27-9.67-9.38-16.06-12.34c-6.39-2.96-13.55-4.44-21.48-4.44
		c-9.47,0-17.9,2.13-25.29,6.39c-7.4,4.26-13.19,10.09-17.39,17.48c-4.2,7.4-6.3,15.89-6.3,25.47c0,9.94,2.07,18.61,6.21,26
		c4.14,7.4,9.91,13.17,17.31,17.31c7.39,4.14,15.94,6.21,25.65,6.21c11.95,0,21.95-2.96,29.99-8.88
		c8.05-5.91,13.55-14.32,16.51-25.2h-30.35c-1.3,3.44-3.37,6.03-6.21,7.81c-2.84,1.78-6.39,2.66-10.65,2.66
		c-3.31,0-6.21-0.74-8.7-2.22c-2.49-1.48-4.41-3.58-5.77-6.3c-1.36-2.72-2.1-5.92-2.22-9.58h64.43
		C1081.94,430.84,1081.76,423.47,1079.99,416.55z M1016.27,419.66c0.36-3.2,1.24-5.98,2.66-8.34c1.42-2.36,3.31-4.2,5.68-5.5
		c2.36-1.3,5.03-1.95,7.99-1.95c4.61,0,8.31,1.45,11.09,4.35c2.78,2.9,4.23,6.72,4.35,11.45H1016.27z"/>
	<path d="M845.72,378.3c5.8,0,10.5-1.62,14.11-4.88c3.61-3.25,5.41-7.37,5.41-12.34c0-5.08-1.81-9.26-5.41-12.51
		c-3.61-3.25-8.31-4.88-14.11-4.88c-5.8,0-10.5,1.63-14.11,4.88c-3.61,3.26-5.41,7.43-5.41,12.51c0,4.97,1.8,9.08,5.41,12.34
		C835.21,376.68,839.92,378.3,845.72,378.3z"/>
	<polygon points="1037.04,290.94 1023.07,290.94 1037.04,290.97 	"/>
	<path d="M1116.47,229.29c-5.98-6.15-13.7-9.23-23.16-9.23c-6.03,0-11.33,1.18-15.89,3.55c-4.55,2.37-8.73,5.62-12.51,9.76v-11.54
		h-27.86v69.11v0.02l-13.97-0.02l-4.66-0.01v-69.1h-30.35v95.49h48.99v-0.03h1.78v0.03h28.56v-50.23c0-4.85,0.65-8.7,1.95-11.54
		c1.3-2.84,3.04-4.91,5.24-6.21c2.19-1.3,4.53-1.95,7.01-1.95c4.61,0,8.02,1.6,10.21,4.79c2.19,3.19,3.28,7.81,3.28,13.84v51.29
		h30.35v-61.41C1125.43,244.32,1122.44,235.44,1116.47,229.29z"/>
</g>
<path d="M734.02,471.09c5.98,6.15,13.7,9.23,23.16,9.23c6.03,0,11.33-1.18,15.89-3.55c4.55-2.37,8.73-5.62,12.51-9.76v11.54h27.86
	v-69.11v-0.02l13.97,0.02l4.66,0.01v69.1h30.35v-95.49h-48.99v0.03h-1.78v-0.03H783.1v50.23c0,4.85-0.65,8.7-1.95,11.54
	c-1.3,2.84-3.04,4.91-5.24,6.21c-2.19,1.3-4.53,1.95-7.01,1.95c-4.61,0-8.02-1.6-10.21-4.79c-2.19-3.19-3.28-7.81-3.28-13.84v-51.29
	h-30.35v61.41C725.06,456.07,728.05,464.94,734.02,471.09z"/>
</svg>
